<mxfile host="app.diagrams.net" modified="2021-10-20T21:05:33.298Z" agent="5.0 (X11; Linux x86_64) AppleWebKit/537.36 (KHTML, like Gecko) Chrome/94.0.4606.81 Safari/537.36" etag="scbS6FEbAg7AqPlbTsqW" version="15.5.7" type="github">
  <diagram id="Qln5K-UvE96SEtALiIJY" name="Page-1">
    <mxGraphModel dx="1427" dy="614" grid="1" gridSize="10" guides="1" tooltips="1" connect="1" arrows="1" fold="1" page="1" pageScale="1" pageWidth="827" pageHeight="1169" math="0" shadow="0">
      <root>
        <mxCell id="0" />
        <mxCell id="1" parent="0" />
        <mxCell id="m9eQUB2IXy0YR0YDTxhf-1" value="Aplicação" style="swimlane;horizontal=0;" vertex="1" parent="1">
          <mxGeometry x="20" y="40" width="770" height="190" as="geometry" />
        </mxCell>
        <mxCell id="m9eQUB2IXy0YR0YDTxhf-6" value="" style="edgeStyle=orthogonalEdgeStyle;rounded=0;orthogonalLoop=1;jettySize=auto;html=1;" edge="1" parent="m9eQUB2IXy0YR0YDTxhf-1" source="m9eQUB2IXy0YR0YDTxhf-4" target="m9eQUB2IXy0YR0YDTxhf-5">
          <mxGeometry relative="1" as="geometry" />
        </mxCell>
        <mxCell id="m9eQUB2IXy0YR0YDTxhf-4" value="" style="shape=image;html=1;verticalLabelPosition=bottom;verticalAlign=top;imageAspect=1;aspect=fixed;image=img/clipart/Gear_128x128.png" vertex="1" parent="m9eQUB2IXy0YR0YDTxhf-1">
          <mxGeometry x="40" y="78.27" width="35.57" height="41.73" as="geometry" />
        </mxCell>
        <mxCell id="m9eQUB2IXy0YR0YDTxhf-8" value="" style="edgeStyle=orthogonalEdgeStyle;rounded=0;orthogonalLoop=1;jettySize=auto;html=1;" edge="1" parent="m9eQUB2IXy0YR0YDTxhf-1" source="m9eQUB2IXy0YR0YDTxhf-5" target="m9eQUB2IXy0YR0YDTxhf-7">
          <mxGeometry relative="1" as="geometry" />
        </mxCell>
        <mxCell id="m9eQUB2IXy0YR0YDTxhf-5" value="ecaminha nota para o sas" style="rounded=0;whiteSpace=wrap;html=1;" vertex="1" parent="m9eQUB2IXy0YR0YDTxhf-1">
          <mxGeometry x="100" y="69.13" width="120" height="60" as="geometry" />
        </mxCell>
        <mxCell id="m9eQUB2IXy0YR0YDTxhf-14" style="edgeStyle=orthogonalEdgeStyle;rounded=0;orthogonalLoop=1;jettySize=auto;html=1;entryX=0.5;entryY=0;entryDx=0;entryDy=0;fontSize=10;" edge="1" parent="m9eQUB2IXy0YR0YDTxhf-1" source="m9eQUB2IXy0YR0YDTxhf-7" target="m9eQUB2IXy0YR0YDTxhf-13">
          <mxGeometry relative="1" as="geometry" />
        </mxCell>
        <mxCell id="m9eQUB2IXy0YR0YDTxhf-17" value="" style="edgeStyle=orthogonalEdgeStyle;rounded=0;orthogonalLoop=1;jettySize=auto;html=1;fontSize=10;" edge="1" parent="m9eQUB2IXy0YR0YDTxhf-1" source="m9eQUB2IXy0YR0YDTxhf-7">
          <mxGeometry relative="1" as="geometry">
            <mxPoint x="450" y="100" as="targetPoint" />
          </mxGeometry>
        </mxCell>
        <mxCell id="m9eQUB2IXy0YR0YDTxhf-7" value="&lt;font style=&quot;font-size: 10px&quot;&gt;verifica se a nota foi emitida&lt;/font&gt;" style="rhombus;whiteSpace=wrap;html=1;rounded=0;" vertex="1" parent="m9eQUB2IXy0YR0YDTxhf-1">
          <mxGeometry x="250" y="60" width="120" height="80" as="geometry" />
        </mxCell>
        <mxCell id="m9eQUB2IXy0YR0YDTxhf-13" value="" style="ellipse;whiteSpace=wrap;html=1;aspect=fixed;fontSize=10;fillColor=#f8cecc;strokeColor=#b85450;" vertex="1" parent="m9eQUB2IXy0YR0YDTxhf-1">
          <mxGeometry x="305" y="170" width="10" height="10" as="geometry" />
        </mxCell>
        <mxCell id="m9eQUB2IXy0YR0YDTxhf-15" value="Emitido" style="text;html=1;align=center;verticalAlign=middle;resizable=0;points=[];autosize=1;strokeColor=none;fillColor=none;fontSize=10;" vertex="1" parent="m9eQUB2IXy0YR0YDTxhf-1">
          <mxGeometry x="305" y="140" width="50" height="20" as="geometry" />
        </mxCell>
        <mxCell id="m9eQUB2IXy0YR0YDTxhf-20" value="Nao emitido" style="text;html=1;align=center;verticalAlign=middle;resizable=0;points=[];autosize=1;strokeColor=none;fillColor=none;fontSize=10;" vertex="1" parent="m9eQUB2IXy0YR0YDTxhf-1">
          <mxGeometry x="359" y="78.27" width="70" height="20" as="geometry" />
        </mxCell>
        <mxCell id="m9eQUB2IXy0YR0YDTxhf-21" value="Persiste um job no REDIS" style="shape=cylinder3;whiteSpace=wrap;html=1;boundedLbl=1;backgroundOutline=1;size=15;fontSize=10;" vertex="1" parent="m9eQUB2IXy0YR0YDTxhf-1">
          <mxGeometry x="450" y="60" width="60" height="80" as="geometry" />
        </mxCell>
        <mxCell id="m9eQUB2IXy0YR0YDTxhf-60" value="&lt;font style=&quot;font-size: 6px&quot;&gt;Apenas erros de time-out &lt;br&gt;e&amp;nbsp;sefaz offline&lt;/font&gt;" style="ellipse;shape=cloud;whiteSpace=wrap;html=1;fontSize=9;" vertex="1" parent="m9eQUB2IXy0YR0YDTxhf-1">
          <mxGeometry x="380" width="100" height="40" as="geometry" />
        </mxCell>
        <mxCell id="m9eQUB2IXy0YR0YDTxhf-62" value="" style="endArrow=none;dashed=1;html=1;dashPattern=1 3;strokeWidth=2;rounded=0;fontSize=9;" edge="1" parent="m9eQUB2IXy0YR0YDTxhf-1">
          <mxGeometry width="50" height="50" relative="1" as="geometry">
            <mxPoint x="340" y="78.27" as="sourcePoint" />
            <mxPoint x="390" y="28.269999999999996" as="targetPoint" />
          </mxGeometry>
        </mxCell>
        <mxCell id="m9eQUB2IXy0YR0YDTxhf-3" value="Micro-Serviço" style="swimlane;horizontal=0;fillColor=#f8cecc;strokeColor=#b85450;" vertex="1" parent="1">
          <mxGeometry x="20" y="230" width="770" height="200" as="geometry" />
        </mxCell>
        <mxCell id="m9eQUB2IXy0YR0YDTxhf-25" value="" style="edgeStyle=orthogonalEdgeStyle;rounded=0;orthogonalLoop=1;jettySize=auto;html=1;fontSize=10;" edge="1" parent="m9eQUB2IXy0YR0YDTxhf-3" source="m9eQUB2IXy0YR0YDTxhf-23" target="m9eQUB2IXy0YR0YDTxhf-24">
          <mxGeometry relative="1" as="geometry" />
        </mxCell>
        <mxCell id="m9eQUB2IXy0YR0YDTxhf-23" value="" style="shape=image;html=1;verticalLabelPosition=bottom;verticalAlign=top;imageAspect=1;aspect=fixed;image=img/clipart/Gear_128x128.png;fontSize=10;" vertex="1" parent="m9eQUB2IXy0YR0YDTxhf-3">
          <mxGeometry x="48.519999999999996" y="90" width="34.95" height="41" as="geometry" />
        </mxCell>
        <mxCell id="m9eQUB2IXy0YR0YDTxhf-27" value="" style="edgeStyle=orthogonalEdgeStyle;rounded=0;orthogonalLoop=1;jettySize=auto;html=1;fontSize=10;" edge="1" parent="m9eQUB2IXy0YR0YDTxhf-3" source="m9eQUB2IXy0YR0YDTxhf-24" target="m9eQUB2IXy0YR0YDTxhf-26">
          <mxGeometry relative="1" as="geometry" />
        </mxCell>
        <mxCell id="m9eQUB2IXy0YR0YDTxhf-24" value="&lt;br&gt;Verifica se possui alguma JOB pendente" style="whiteSpace=wrap;html=1;fontSize=10;verticalAlign=top;" vertex="1" parent="m9eQUB2IXy0YR0YDTxhf-3">
          <mxGeometry x="138" y="80.5" width="120" height="60" as="geometry" />
        </mxCell>
        <mxCell id="m9eQUB2IXy0YR0YDTxhf-28" style="edgeStyle=orthogonalEdgeStyle;rounded=0;orthogonalLoop=1;jettySize=auto;html=1;entryX=0.5;entryY=1;entryDx=0;entryDy=0;fontSize=10;" edge="1" parent="m9eQUB2IXy0YR0YDTxhf-3" source="m9eQUB2IXy0YR0YDTxhf-26" target="m9eQUB2IXy0YR0YDTxhf-24">
          <mxGeometry relative="1" as="geometry">
            <Array as="points">
              <mxPoint x="350" y="171" />
              <mxPoint x="198" y="171" />
            </Array>
          </mxGeometry>
        </mxCell>
        <mxCell id="m9eQUB2IXy0YR0YDTxhf-34" value="" style="edgeStyle=orthogonalEdgeStyle;rounded=0;orthogonalLoop=1;jettySize=auto;html=1;fontSize=10;" edge="1" parent="m9eQUB2IXy0YR0YDTxhf-3" source="m9eQUB2IXy0YR0YDTxhf-26" target="m9eQUB2IXy0YR0YDTxhf-33">
          <mxGeometry relative="1" as="geometry" />
        </mxCell>
        <mxCell id="m9eQUB2IXy0YR0YDTxhf-26" value="" style="rhombus;whiteSpace=wrap;html=1;fontSize=10;verticalAlign=top;" vertex="1" parent="m9eQUB2IXy0YR0YDTxhf-3">
          <mxGeometry x="310" y="70.5" width="80" height="80" as="geometry" />
        </mxCell>
        <mxCell id="m9eQUB2IXy0YR0YDTxhf-30" value="Não possui" style="text;html=1;align=center;verticalAlign=middle;resizable=0;points=[];autosize=1;strokeColor=none;fillColor=none;fontSize=10;" vertex="1" parent="m9eQUB2IXy0YR0YDTxhf-3">
          <mxGeometry x="280" y="150.5" width="70" height="20" as="geometry" />
        </mxCell>
        <mxCell id="m9eQUB2IXy0YR0YDTxhf-36" value="" style="edgeStyle=orthogonalEdgeStyle;rounded=0;orthogonalLoop=1;jettySize=auto;html=1;fontSize=10;" edge="1" parent="m9eQUB2IXy0YR0YDTxhf-3" source="m9eQUB2IXy0YR0YDTxhf-33" target="m9eQUB2IXy0YR0YDTxhf-35">
          <mxGeometry relative="1" as="geometry">
            <Array as="points">
              <mxPoint x="445" y="161" />
            </Array>
          </mxGeometry>
        </mxCell>
        <mxCell id="m9eQUB2IXy0YR0YDTxhf-39" value="" style="edgeStyle=orthogonalEdgeStyle;rounded=0;orthogonalLoop=1;jettySize=auto;html=1;fontSize=10;" edge="1" parent="m9eQUB2IXy0YR0YDTxhf-3" source="m9eQUB2IXy0YR0YDTxhf-33" target="m9eQUB2IXy0YR0YDTxhf-37">
          <mxGeometry relative="1" as="geometry">
            <Array as="points">
              <mxPoint x="445" y="60" />
            </Array>
          </mxGeometry>
        </mxCell>
        <mxCell id="m9eQUB2IXy0YR0YDTxhf-33" value="" style="ellipse;whiteSpace=wrap;html=1;aspect=fixed;fontSize=10;" vertex="1" parent="m9eQUB2IXy0YR0YDTxhf-3">
          <mxGeometry x="440" y="105.5" width="10" height="10" as="geometry" />
        </mxCell>
        <mxCell id="m9eQUB2IXy0YR0YDTxhf-65" style="edgeStyle=orthogonalEdgeStyle;rounded=0;orthogonalLoop=1;jettySize=auto;html=1;entryX=0;entryY=0.5;entryDx=0;entryDy=0;fontSize=6;" edge="1" parent="m9eQUB2IXy0YR0YDTxhf-3" source="m9eQUB2IXy0YR0YDTxhf-35" target="m9eQUB2IXy0YR0YDTxhf-63">
          <mxGeometry relative="1" as="geometry" />
        </mxCell>
        <mxCell id="m9eQUB2IXy0YR0YDTxhf-35" value="Requisição HTTP (NeverStop)" style="whiteSpace=wrap;html=1;fontSize=10;" vertex="1" parent="m9eQUB2IXy0YR0YDTxhf-3">
          <mxGeometry x="475" y="130.5" width="120" height="60" as="geometry" />
        </mxCell>
        <mxCell id="m9eQUB2IXy0YR0YDTxhf-49" style="edgeStyle=orthogonalEdgeStyle;rounded=0;orthogonalLoop=1;jettySize=auto;html=1;entryX=0;entryY=0.5;entryDx=0;entryDy=0;fontSize=10;" edge="1" parent="m9eQUB2IXy0YR0YDTxhf-3" source="m9eQUB2IXy0YR0YDTxhf-37" target="m9eQUB2IXy0YR0YDTxhf-46">
          <mxGeometry relative="1" as="geometry" />
        </mxCell>
        <mxCell id="m9eQUB2IXy0YR0YDTxhf-37" value="Persiste um documento na base mongo" style="whiteSpace=wrap;html=1;fontSize=10;" vertex="1" parent="m9eQUB2IXy0YR0YDTxhf-3">
          <mxGeometry x="475" y="30" width="120" height="60" as="geometry" />
        </mxCell>
        <mxCell id="m9eQUB2IXy0YR0YDTxhf-40" value="async" style="text;html=1;align=center;verticalAlign=middle;resizable=0;points=[];autosize=1;strokeColor=none;fillColor=none;fontSize=10;" vertex="1" parent="m9eQUB2IXy0YR0YDTxhf-3">
          <mxGeometry x="440" y="90" width="40" height="20" as="geometry" />
        </mxCell>
        <mxCell id="m9eQUB2IXy0YR0YDTxhf-46" value="" style="ellipse;whiteSpace=wrap;html=1;aspect=fixed;fontSize=10;fillColor=#f8cecc;strokeColor=#b85450;" vertex="1" parent="m9eQUB2IXy0YR0YDTxhf-3">
          <mxGeometry x="620" y="55" width="10" height="10" as="geometry" />
        </mxCell>
        <mxCell id="m9eQUB2IXy0YR0YDTxhf-2" value="&lt;font style=&quot;font-size: 9px&quot;&gt;Possui job&lt;/font&gt;" style="text;html=1;align=center;verticalAlign=middle;resizable=0;points=[];autosize=1;strokeColor=none;fillColor=none;" vertex="1" parent="m9eQUB2IXy0YR0YDTxhf-3">
          <mxGeometry x="375" y="90" width="60" height="20" as="geometry" />
        </mxCell>
        <mxCell id="m9eQUB2IXy0YR0YDTxhf-63" value="" style="ellipse;whiteSpace=wrap;html=1;aspect=fixed;fontSize=10;fillColor=#f8cecc;strokeColor=#b85450;" vertex="1" parent="m9eQUB2IXy0YR0YDTxhf-3">
          <mxGeometry x="620" y="155.5" width="10" height="10" as="geometry" />
        </mxCell>
        <mxCell id="m9eQUB2IXy0YR0YDTxhf-66" value="&lt;font style=&quot;font-size: 11px&quot;&gt;Listener Jobs&lt;/font&gt;" style="text;html=1;align=center;verticalAlign=middle;resizable=0;points=[];autosize=1;strokeColor=none;fillColor=none;fontSize=6;" vertex="1" parent="m9eQUB2IXy0YR0YDTxhf-3">
          <mxGeometry x="26" y="131" width="80" height="10" as="geometry" />
        </mxCell>
        <mxCell id="m9eQUB2IXy0YR0YDTxhf-67" value="&lt;font style=&quot;font-size: 6px&quot;&gt;Para identificar a nota que esta sendo transmitida via NS, &lt;br&gt;apos fazer consulta para &lt;br&gt;verificar se foi emitida&lt;/font&gt;" style="ellipse;shape=cloud;whiteSpace=wrap;html=1;fontSize=11;" vertex="1" parent="m9eQUB2IXy0YR0YDTxhf-3">
          <mxGeometry x="640" y="-4" width="130" height="104" as="geometry" />
        </mxCell>
        <mxCell id="m9eQUB2IXy0YR0YDTxhf-68" value="" style="endArrow=none;dashed=1;html=1;dashPattern=1 3;strokeWidth=2;rounded=0;fontSize=6;" edge="1" parent="m9eQUB2IXy0YR0YDTxhf-3" target="m9eQUB2IXy0YR0YDTxhf-67">
          <mxGeometry width="50" height="50" relative="1" as="geometry">
            <mxPoint x="595" y="46" as="sourcePoint" />
            <mxPoint x="645" y="-4" as="targetPoint" />
            <Array as="points">
              <mxPoint x="625" y="16" />
            </Array>
          </mxGeometry>
        </mxCell>
      </root>
    </mxGraphModel>
  </diagram>
</mxfile>
